Coordinates
version=1
nRows=8
nColumns=40
inDegrees=yes

Units are S.I. units (second, meters, Newtons, ...)
Angles are in degrees.

endheader
time	pelvis_tilt	pelvis_list	pelvis_rotation	pelvis_tx	pelvis_ty	pelvis_tz	hip_flexion_r	hip_adduction_r	hip_rotation_r	knee_angle_r	knee_angle_r_beta	ankle_angle_r	subtalar_angle_r	mtp_angle_r	hip_flexion_l	hip_adduction_l	hip_rotation_l	knee_angle_l	knee_angle_l_beta	ankle_angle_l	subtalar_angle_l	mtp_angle_l	lumbar_extension	lumbar_bending	lumbar_rotation	arm_flex_r	arm_add_r	arm_rot_r	elbow_flex_r	pro_sup_r	wrist_flex_r	wrist_dev_r	arm_flex_l	arm_add_l	arm_rot_l	elbow_flex_l	pro_sup_l	wrist_flex_l	wrist_dev_l
     44.68750000	    -10.09323384	     -5.51726043	      0.18148046	      0.96139811	      0.92487103	      0.51712807	     17.31472323	      4.11815210	    -14.15740453	     17.56488738	     17.56488738	     11.75626713	      2.46526176	      0.60857593	     45.79314339	    -10.49894297	      8.70031898	     77.03456728	     77.03456728	      8.76556991	    -18.52664797	     10.83595564	    -12.64896909	      3.41425185	      4.11134451	     26.36322466	    -16.11990445	     -0.45636851	     54.06791811	     45.55647002	      0.00000000	      0.00000000	      2.56068034	     -7.50667391	     -5.95694109	     31.35913197	     47.10458984	      0.00000000	      0.00000000
     44.69900000	    -10.02673801	     -5.69754972	      0.27346669	      0.96024802	      0.92502563	      0.51745506	     16.21388624	      4.47167250	    -14.24488021	     16.52298299	     16.52298299	     11.77195889	      2.86662095	      0.18735264	     47.06085705	    -10.58442236	      8.79679480	     76.03525178	     76.03525178	      9.23102411	    -18.58010420	     12.38737197	    -12.67910141	      3.62487206	      3.68451842	     28.66932067	    -15.91198961	      0.92198304	     55.40547412	     45.46166016	      0.00000000	      0.00000000	      2.30498365	     -7.45140290	     -6.18098947	     26.37083541	     47.10686405	      0.00000000	      0.00000000
     44.71050000	     -9.99441174	     -5.88442293	      0.27349488	      0.95911210	      0.92505626	      0.51777160	     15.20256840	      4.84006881	    -14.21547871	     15.59404310	     15.59404310	     11.94637365	      3.23641265	      0.16678018	     48.15661456	    -10.77782252	      8.73728460	     74.65327041	     74.65327041	      9.33096239	    -18.69140985	     12.80207035	    -12.73446213	      3.76925728	      3.73175380	     30.56409946	    -15.79953897	      0.90607358	     56.72694009	     45.42525445	      0.00000000	      0.00000000	      0.84656817	     -7.54752009	     -6.28734282	     25.30707471	     47.09113662	      0.00000000	      0.00000000
     44.72200000	    -10.03125701	     -6.07014337	      0.25099842	      0.95794447	      0.92493937	      0.51797945	     14.24658354	      5.19234783	    -14.19886309	     14.63119543	     14.63119543	     12.06395168	      3.71411835	      0.10712299	     49.16864115	    -10.97131636	      8.61503412	     72.96149423	     72.96149423	      9.42554924	    -18.74876038	     13.27926648	    -12.72971254	      3.94290712	      3.89936120	     32.37930731	    -15.74256810	      1.00734677	     57.98158800	     45.38648482	      0.00000000	      0.00000000	     -0.45337749	     -7.59093430	     -6.31724267	     24.38206230	     47.06657409	      0.00000000	      0.00000000
     44.73350000	    -10.10779980	     -6.27840941	      0.20331912	      0.95677410	      0.92470753	      0.51808499	     13.35168748	      5.54904539	    -14.22359289	     13.71386326	     13.71386326	     12.16349220	      4.24954421	      0.02370012	     50.04092069	    -11.17370897	      8.45208912	     70.95214832	     70.95214832	      9.54830437	    -18.77887133	     13.72169234	    -12.70223839	      4.12960052	      4.19201929	     34.07121855	    -15.76049490	      1.12917320	     59.15159961	     45.34970447	      0.00000000	      0.00000000	     -1.70494085	     -7.63057526	     -6.31577851	     23.63899946	     47.03884637	      0.00000000	      0.00000000
     44.74500000	    -10.11781312	     -6.57280585	      0.17377962	      0.95577814	      0.92452682	      0.51806161	     12.18182269	      6.01600890	    -14.38165037	     12.41809218	     12.41809218	     12.11621520	      5.13164479	     -0.13326808	     50.65239818	    -11.38461633	      8.38424920	     68.63921279	     68.63921279	      9.67963512	    -18.73235286	     14.19440609	    -12.71463196	      4.44934798	      4.24558683	     35.70321034	    -15.66814369	      1.49435769	     60.73644963	     45.28954035	      0.00000000	      0.00000000	     -3.06305103	     -7.68338777	     -6.24911396	     22.95412894	     46.99153619	      0.00000000	      0.00000000
     44.75650000	    -10.34326372	     -6.76873484	      0.05366094	      0.95456669	      0.92388144	      0.51787448	     11.57100678	      6.29897791	    -14.34512364	     11.75513632	     11.75513632	     12.29025347	      5.65167305	     -0.26549146	     51.27302094	    -11.51803231	      8.17182646	     66.00865027	     66.00865027	      9.74734643	    -18.60493129	     14.50453693	    -12.49317303	      4.67448413	      4.76972163	     37.25973063	    -15.85762668	      1.50825554	     61.67359237	     45.26481766	      0.00000000	      0.00000000	     -4.17482593	     -7.66648106	     -6.23025103	     22.57526968	     46.96195563	      0.00000000	      0.00000000
     44.76800000	    -10.31823602	     -7.13930151	      0.02001691	      0.95384192	      0.92362912	      0.51753405	     10.16478062	      6.81802969	    -14.98038852	     10.10379453	     10.10379453	     11.81388538	      7.35268266	     -1.30412213	     51.34297098	    -11.70783413	      8.15941397	     62.97866546	     62.97866546	      9.64164240	    -18.40456076	     14.04915432	    -12.65026544	      5.09467611	      4.87091127	     38.25029621	    -16.24541100	      2.99827983	     64.86638307	     45.11616740	      0.00000000	      0.00000000	     -5.86898622	     -7.78907911	     -5.41298630	     23.20550237	     46.70415419	      0.00000000	      0.00000000
